<svg xmlns="http://www.w3.org/2000/svg" xmlns:xlink="http://www.w3.org/1999/xlink" width="200" zoomAndPan="magnify" viewBox="0 0 375 374.999991" height="200" preserveAspectRatio="xMidYMid meet" version="1.0"><defs><g/><clipPath id="771c956359"><path d="M 0 181.382812 L 375 181.382812 L 375 214.695312 L 0 214.695312 Z M 0 181.382812 " clip-rule="nonzero"/></clipPath></defs><g fill="#253439" fill-opacity="1"><g transform="translate(6.573167, 247.604854)"><g><path d="M 11.613281 0 L 40.335938 0 L 40.335938 -2.324219 C 34.421875 -3.800781 31.890625 -7.390625 31.890625 -26.820312 L 31.890625 -79.617188 L 65.890625 -79.40625 C 87.851562 -79.195312 92.5 -74.335938 94.1875 -66.523438 L 96.511719 -66.523438 L 96.511719 -94.609375 L 94.1875 -94.609375 C 92.5 -86.796875 87.851562 -81.9375 65.890625 -82.152344 L 31.890625 -82.363281 L 31.890625 -145.082031 L 75.390625 -145.082031 C 94.398438 -145.082031 102.425781 -140.015625 108.757812 -126.5 L 110.660156 -126.921875 L 108.546875 -147.828125 L 11.613281 -147.828125 L 11.613281 -145.503906 C 17.527344 -144.027344 20.0625 -140.4375 20.0625 -121.007812 L 20.0625 -26.820312 C 20.0625 -7.390625 17.527344 -3.800781 11.613281 -2.324219 Z M 11.613281 0 "/></g></g></g><g fill="#253439" fill-opacity="1"><g transform="translate(146.794561, 247.604854)"><g/></g></g><g fill="#253439" fill-opacity="1"><g transform="translate(215.85053, 247.604854)"><g><path d="M 88.0625 2.113281 C 109.394531 2.113281 133.679688 -4.644531 142.550781 -10.558594 L 145.929688 -35.054688 L 143.816406 -35.269531 C 134.945312 -11.613281 115.730469 -1.691406 93.765625 -1.691406 C 46.671875 -1.691406 22.808594 -40.335938 23.019531 -78.558594 C 23.441406 -122.910156 51.527344 -145.082031 84.894531 -145.082031 C 113.828125 -145.082031 131.777344 -132.835938 139.59375 -116.152344 L 141.28125 -116.574219 L 140.4375 -138.535156 C 135.15625 -141.492188 114.671875 -149.308594 93.976562 -149.308594 C 46.460938 -149.308594 10.558594 -118.050781 10.558594 -70.535156 C 10.558594 -25.976562 41.601562 2.113281 88.0625 2.113281 Z M 88.0625 2.113281 "/></g></g></g><path stroke-linecap="butt" transform="matrix(-0.000000000000000287, -0.750602, 0.75, -0.000000000000000287, 185.401267, 314.780281)" fill="none" stroke-linejoin="miter" d="M -0.00129106 4.001436 L 369.712267 4.001436 " stroke="#253439" stroke-width="8" stroke-opacity="1" stroke-miterlimit="4"/><g clip-path="url(#771c956359)"><path fill="#ffffff" d="M -2.902344 181.382812 L 379.710938 181.382812 L 379.710938 214.695312 L -2.902344 214.695312 Z M -2.902344 181.382812 " fill-opacity="1" fill-rule="nonzero"/></g><g fill="#253439" fill-opacity="1"><g transform="translate(-0.708306, 205.009983)"><g><path d="M 1.828125 0 L 1.828125 -17.296875 L 12.359375 -17.296875 L 12.359375 -15.59375 L 3.90625 -15.59375 L 3.90625 -9.515625 L 11.09375 -9.515625 L 11.09375 -7.828125 L 3.90625 -7.828125 L 3.90625 0 Z M 1.828125 0 "/></g></g></g><g fill="#253439" fill-opacity="1"><g transform="translate(17.728507, 205.009983)"><g><path d="M 1.828125 0 L 1.828125 -17.296875 L 7.421875 -17.296875 C 8.765625 -17.296875 9.863281 -17.070312 10.71875 -16.625 C 11.582031 -16.1875 12.21875 -15.578125 12.625 -14.796875 C 13.039062 -14.023438 13.25 -13.171875 13.25 -12.234375 C 13.25 -11.148438 12.957031 -10.171875 12.375 -9.296875 C 11.789062 -8.421875 10.878906 -7.800781 9.640625 -7.4375 L 13.421875 0 L 10.96875 0 L 7.46875 -7.140625 L 3.90625 -7.140625 L 3.90625 0 Z M 3.90625 -8.78125 L 7.265625 -8.78125 C 8.597656 -8.78125 9.566406 -9.097656 10.171875 -9.734375 C 10.785156 -10.378906 11.09375 -11.207031 11.09375 -12.21875 C 11.09375 -13.238281 10.789062 -14.046875 10.1875 -14.640625 C 9.59375 -15.242188 8.613281 -15.546875 7.25 -15.546875 L 3.90625 -15.546875 Z M 3.90625 -8.78125 "/></g></g></g><g fill="#253439" fill-opacity="1"><g transform="translate(37.623199, 205.009983)"><g><path d="M 0.734375 0 L 7.125 -17.296875 L 9.3125 -17.296875 L 15.671875 0 L 13.46875 0 L 11.890625 -4.453125 L 4.53125 -4.453125 L 2.921875 0 Z M 5.140625 -6.125 L 11.265625 -6.125 L 8.203125 -14.6875 Z M 5.140625 -6.125 "/></g></g></g><g fill="#253439" fill-opacity="1"><g transform="translate(59.272282, 205.009983)"><g><path d="M 1.828125 0 L 1.828125 -17.296875 L 3.90625 -17.296875 L 13.125 -3.4375 L 13.125 -17.296875 L 15.203125 -17.296875 L 15.203125 0 L 13.125 0 L 3.90625 -13.875 L 3.90625 0 Z M 1.828125 0 "/></g></g></g><g fill="#253439" fill-opacity="1"><g transform="translate(81.53912, 205.009983)"><g><path d="M 1.09375 0 L 1.09375 -1.625 L 9.609375 -15.5 L 1.21875 -15.5 L 1.21875 -17.296875 L 12.03125 -17.296875 L 12.03125 -15.671875 L 3.484375 -1.796875 L 12.140625 -1.796875 L 12.140625 0 Z M 1.09375 0 "/></g></g></g><g fill="#253439" fill-opacity="1"><g transform="translate(100.000634, 205.009983)"><g><path d="M 1.828125 0 L 1.828125 -17.296875 L 3.90625 -17.296875 L 3.90625 0 Z M 1.828125 0 "/></g></g></g><g fill="#253439" fill-opacity="1"><g transform="translate(110.975062, 205.009983)"><g><path d="M 7.34375 0.296875 C 6.070312 0.296875 4.96875 0.0664062 4.03125 -0.390625 C 3.09375 -0.859375 2.367188 -1.503906 1.859375 -2.328125 C 1.347656 -3.148438 1.09375 -4.101562 1.09375 -5.1875 L 3.265625 -5.1875 C 3.265625 -4.507812 3.421875 -3.882812 3.734375 -3.3125 C 4.046875 -2.75 4.5 -2.296875 5.09375 -1.953125 C 5.695312 -1.617188 6.445312 -1.453125 7.34375 -1.453125 C 8.507812 -1.453125 9.414062 -1.734375 10.0625 -2.296875 C 10.707031 -2.859375 11.03125 -3.5625 11.03125 -4.40625 C 11.03125 -5.09375 10.878906 -5.644531 10.578125 -6.0625 C 10.285156 -6.488281 9.882812 -6.832031 9.375 -7.09375 C 8.875 -7.351562 8.296875 -7.582031 7.640625 -7.78125 C 6.992188 -7.976562 6.316406 -8.203125 5.609375 -8.453125 C 4.273438 -8.910156 3.285156 -9.484375 2.640625 -10.171875 C 2.003906 -10.859375 1.6875 -11.753906 1.6875 -12.859375 C 1.664062 -13.773438 1.875 -14.59375 2.3125 -15.3125 C 2.757812 -16.03125 3.390625 -16.585938 4.203125 -16.984375 C 5.023438 -17.390625 6 -17.59375 7.125 -17.59375 C 8.226562 -17.59375 9.1875 -17.382812 10 -16.96875 C 10.8125 -16.5625 11.441406 -15.992188 11.890625 -15.265625 C 12.347656 -14.546875 12.585938 -13.722656 12.609375 -12.796875 L 10.4375 -12.796875 C 10.4375 -13.273438 10.3125 -13.75 10.0625 -14.21875 C 9.8125 -14.695312 9.4375 -15.082031 8.9375 -15.375 C 8.4375 -15.664062 7.804688 -15.8125 7.046875 -15.8125 C 6.109375 -15.832031 5.335938 -15.59375 4.734375 -15.09375 C 4.128906 -14.601562 3.828125 -13.921875 3.828125 -13.046875 C 3.828125 -12.304688 4.035156 -11.738281 4.453125 -11.34375 C 4.878906 -10.945312 5.46875 -10.617188 6.21875 -10.359375 C 6.976562 -10.109375 7.851562 -9.816406 8.84375 -9.484375 C 9.664062 -9.191406 10.40625 -8.847656 11.0625 -8.453125 C 11.726562 -8.054688 12.242188 -7.546875 12.609375 -6.921875 C 12.984375 -6.296875 13.171875 -5.5 13.171875 -4.53125 C 13.171875 -3.695312 12.957031 -2.914062 12.53125 -2.1875 C 12.101562 -1.457031 11.457031 -0.859375 10.59375 -0.390625 C 9.726562 0.0664062 8.644531 0.296875 7.34375 0.296875 Z M 7.34375 0.296875 "/></g></g></g><g fill="#253439" fill-opacity="1"><g transform="translate(130.499113, 205.009983)"><g><path d="M 1.828125 0 L 1.828125 -17.296875 L 3.90625 -17.296875 L 3.90625 -9.46875 L 11.125 -17.296875 L 13.75 -17.296875 L 7.3125 -10.40625 L 13.84375 0 L 11.328125 0 L 5.828125 -8.796875 L 3.90625 -6.75 L 3.90625 0 Z M 1.828125 0 "/></g></g></g><g fill="#253439" fill-opacity="1"><g transform="translate(150.121996, 205.009983)"><g><path d="M 0.734375 0 L 7.125 -17.296875 L 9.3125 -17.296875 L 15.671875 0 L 13.46875 0 L 11.890625 -4.453125 L 4.53125 -4.453125 L 2.921875 0 Z M 5.140625 -6.125 L 11.265625 -6.125 L 8.203125 -14.6875 Z M 5.140625 -6.125 "/></g></g></g><g fill="#253439" fill-opacity="1"><g transform="translate(171.771084, 205.009983)"><g/></g></g><g fill="#253439" fill-opacity="1"><g transform="translate(183.560941, 205.009983)"><g><path d="M 7.046875 0 L 0.546875 -17.296875 L 2.796875 -17.296875 L 8.25 -2.203125 L 13.765625 -17.296875 L 15.96875 -17.296875 L 9.46875 0 Z M 7.046875 0 "/></g></g></g><g fill="#253439" fill-opacity="1"><g transform="translate(205.308881, 205.009983)"><g><path d="M 9.6875 0.296875 C 7.988281 0.296875 6.5 -0.078125 5.21875 -0.828125 C 3.945312 -1.578125 2.953125 -2.625 2.234375 -3.96875 C 1.515625 -5.320312 1.15625 -6.882812 1.15625 -8.65625 C 1.15625 -10.414062 1.515625 -11.96875 2.234375 -13.3125 C 2.953125 -14.65625 3.945312 -15.703125 5.21875 -16.453125 C 6.5 -17.210938 7.988281 -17.59375 9.6875 -17.59375 C 11.40625 -17.59375 12.898438 -17.210938 14.171875 -16.453125 C 15.453125 -15.703125 16.445312 -14.65625 17.15625 -13.3125 C 17.863281 -11.96875 18.21875 -10.414062 18.21875 -8.65625 C 18.21875 -6.882812 17.863281 -5.320312 17.15625 -3.96875 C 16.445312 -2.625 15.453125 -1.578125 14.171875 -0.828125 C 12.898438 -0.078125 11.40625 0.296875 9.6875 0.296875 Z M 9.6875 -1.53125 C 10.957031 -1.53125 12.070312 -1.8125 13.03125 -2.375 C 14 -2.945312 14.75 -3.765625 15.28125 -4.828125 C 15.820312 -5.890625 16.09375 -7.164062 16.09375 -8.65625 C 16.09375 -10.132812 15.820312 -11.398438 15.28125 -12.453125 C 14.75 -13.515625 14 -14.328125 13.03125 -14.890625 C 12.070312 -15.460938 10.957031 -15.75 9.6875 -15.75 C 8.414062 -15.75 7.296875 -15.460938 6.328125 -14.890625 C 5.367188 -14.328125 4.617188 -13.515625 4.078125 -12.453125 C 3.546875 -11.398438 3.28125 -10.132812 3.28125 -8.65625 C 3.28125 -7.164062 3.546875 -5.890625 4.078125 -4.828125 C 4.617188 -3.765625 5.367188 -2.945312 6.328125 -2.375 C 7.296875 -1.8125 8.414062 -1.53125 9.6875 -1.53125 Z M 9.6875 -1.53125 "/></g></g></g><g fill="#253439" fill-opacity="1"><g transform="translate(229.923166, 205.009983)"><g><path d="M 1.828125 0 L 1.828125 -17.296875 L 3.90625 -17.296875 L 13.125 -3.4375 L 13.125 -17.296875 L 15.203125 -17.296875 L 15.203125 0 L 13.125 0 L 3.90625 -13.875 L 3.90625 0 Z M 1.828125 0 "/></g></g></g><g fill="#253439" fill-opacity="1"><g transform="translate(252.190009, 205.009983)"><g/></g></g><g fill="#253439" fill-opacity="1"><g transform="translate(263.979866, 205.009983)"><g><path d="M 9.421875 0.296875 C 7.722656 0.296875 6.257812 -0.078125 5.03125 -0.828125 C 3.800781 -1.578125 2.847656 -2.625 2.171875 -3.96875 C 1.492188 -5.3125 1.15625 -6.875 1.15625 -8.65625 C 1.15625 -10.414062 1.492188 -11.96875 2.171875 -13.3125 C 2.847656 -14.65625 3.800781 -15.703125 5.03125 -16.453125 C 6.257812 -17.210938 7.722656 -17.59375 9.421875 -17.59375 C 11.398438 -17.59375 13.007812 -17.117188 14.25 -16.171875 C 15.488281 -15.222656 16.285156 -13.90625 16.640625 -12.21875 L 14.34375 -12.21875 C 14.070312 -13.28125 13.53125 -14.132812 12.71875 -14.78125 C 11.90625 -15.4375 10.804688 -15.765625 9.421875 -15.765625 C 8.179688 -15.765625 7.097656 -15.476562 6.171875 -14.90625 C 5.253906 -14.34375 4.539062 -13.53125 4.03125 -12.46875 C 3.53125 -11.40625 3.28125 -10.132812 3.28125 -8.65625 C 3.28125 -7.164062 3.53125 -5.890625 4.03125 -4.828125 C 4.539062 -3.765625 5.253906 -2.945312 6.171875 -2.375 C 7.097656 -1.8125 8.179688 -1.53125 9.421875 -1.53125 C 10.804688 -1.53125 11.90625 -1.847656 12.71875 -2.484375 C 13.53125 -3.117188 14.070312 -3.960938 14.34375 -5.015625 L 16.640625 -5.015625 C 16.285156 -3.347656 15.488281 -2.046875 14.25 -1.109375 C 13.007812 -0.171875 11.398438 0.296875 9.421875 0.296875 Z M 9.421875 0.296875 "/></g></g></g><g fill="#253439" fill-opacity="1"><g transform="translate(287.012721, 205.009983)"><g><path d="M 1.828125 0 L 1.828125 -17.296875 L 7.421875 -17.296875 C 8.765625 -17.296875 9.863281 -17.070312 10.71875 -16.625 C 11.582031 -16.1875 12.21875 -15.578125 12.625 -14.796875 C 13.039062 -14.023438 13.25 -13.171875 13.25 -12.234375 C 13.25 -11.148438 12.957031 -10.171875 12.375 -9.296875 C 11.789062 -8.421875 10.878906 -7.800781 9.640625 -7.4375 L 13.421875 0 L 10.96875 0 L 7.46875 -7.140625 L 3.90625 -7.140625 L 3.90625 0 Z M 3.90625 -8.78125 L 7.265625 -8.78125 C 8.597656 -8.78125 9.566406 -9.097656 10.171875 -9.734375 C 10.785156 -10.378906 11.09375 -11.207031 11.09375 -12.21875 C 11.09375 -13.238281 10.789062 -14.046875 10.1875 -14.640625 C 9.59375 -15.242188 8.613281 -15.546875 7.25 -15.546875 L 3.90625 -15.546875 Z M 3.90625 -8.78125 "/></g></g></g><g fill="#253439" fill-opacity="1"><g transform="translate(306.907417, 205.009983)"><g><path d="M 0.734375 0 L 7.125 -17.296875 L 9.3125 -17.296875 L 15.671875 0 L 13.46875 0 L 11.890625 -4.453125 L 4.53125 -4.453125 L 2.921875 0 Z M 5.140625 -6.125 L 11.265625 -6.125 L 8.203125 -14.6875 Z M 5.140625 -6.125 "/></g></g></g><g fill="#253439" fill-opacity="1"><g transform="translate(328.556487, 205.009983)"><g><path d="M 1.828125 0 L 1.828125 -17.296875 L 4.25 -17.296875 L 10.484375 -5.234375 L 16.65625 -17.296875 L 19.109375 -17.296875 L 19.109375 0 L 17.03125 0 L 17.03125 -13.59375 L 11.25 -2.46875 L 9.6875 -2.46875 L 3.90625 -13.578125 L 3.90625 0 Z M 1.828125 0 "/></g></g></g><g fill="#253439" fill-opacity="1"><g transform="translate(354.727464, 205.009983)"><g><path d="M 1.828125 0 L 1.828125 -17.296875 L 4.25 -17.296875 L 10.484375 -5.234375 L 16.65625 -17.296875 L 19.109375 -17.296875 L 19.109375 0 L 17.03125 0 L 17.03125 -13.59375 L 11.25 -2.46875 L 9.6875 -2.46875 L 3.90625 -13.578125 L 3.90625 0 Z M 1.828125 0 "/></g></g></g></svg>