<svg xmlns="http://www.w3.org/2000/svg" xmlns:xlink="http://www.w3.org/1999/xlink" width="500" zoomAndPan="magnify" viewBox="0 0 375 74.999997" height="100" preserveAspectRatio="xMidYMid meet" version="1.0"><defs><g/></defs><g fill="#1d2c38" fill-opacity="1"><g transform="translate(92.232876, 32.075149)"><g><path d="M 4.28125 -14.484375 L 4.28125 -8.21875 L 12.515625 -8.21875 L 12.515625 -6.765625 L 4.28125 -6.765625 L 4.28125 0 L 2.59375 0 L 2.59375 -15.9375 L 13.515625 -15.9375 L 13.515625 -14.484375 Z M 4.28125 -14.484375 "/></g></g></g><g fill="#1d2c38" fill-opacity="1"><g transform="translate(108.525011, 32.075149)"><g><path d="M 13.484375 0 L 9.828125 -5.125 C 9.421875 -5.070312 9 -5.046875 8.5625 -5.046875 L 4.28125 -5.046875 L 4.28125 0 L 2.59375 0 L 2.59375 -15.9375 L 8.5625 -15.9375 C 10.59375 -15.9375 12.1875 -15.445312 13.34375 -14.46875 C 14.5 -13.5 15.078125 -12.164062 15.078125 -10.46875 C 15.078125 -9.226562 14.757812 -8.175781 14.125 -7.3125 C 13.5 -6.457031 12.597656 -5.84375 11.421875 -5.46875 L 15.328125 0 Z M 8.515625 -6.484375 C 10.085938 -6.484375 11.289062 -6.832031 12.125 -7.53125 C 12.96875 -8.226562 13.390625 -9.207031 13.390625 -10.46875 C 13.390625 -11.757812 12.96875 -12.75 12.125 -13.4375 C 11.289062 -14.132812 10.085938 -14.484375 8.515625 -14.484375 L 4.28125 -14.484375 L 4.28125 -6.484375 Z M 8.515625 -6.484375 "/></g></g></g><g fill="#1d2c38" fill-opacity="1"><g transform="translate(126.864908, 32.075149)"><g><path d="M 12.59375 -4.25 L 3.703125 -4.25 L 1.796875 0 L 0.046875 0 L 7.328125 -15.9375 L 9 -15.9375 L 16.28125 0 L 14.5 0 Z M 11.96875 -5.625 L 8.15625 -14.1875 L 4.328125 -5.625 Z M 11.96875 -5.625 "/></g></g></g><g fill="#1d2c38" fill-opacity="1"><g transform="translate(145.068285, 32.075149)"><g><path d="M 15.90625 -15.9375 L 15.90625 0 L 14.53125 0 L 4.28125 -12.9375 L 4.28125 0 L 2.59375 0 L 2.59375 -15.9375 L 3.984375 -15.9375 L 14.25 -3 L 14.25 -15.9375 Z M 15.90625 -15.9375 "/></g></g></g><g fill="#1d2c38" fill-opacity="1"><g transform="translate(165.455932, 32.075149)"><g><path d="M 14.09375 -1.453125 L 14.09375 0 L 1.03125 0 L 1.03125 -1.15625 L 11.59375 -14.484375 L 1.1875 -14.484375 L 1.1875 -15.9375 L 13.8125 -15.9375 L 13.8125 -14.78125 L 3.28125 -1.453125 Z M 14.09375 -1.453125 "/></g></g></g><g fill="#1d2c38" fill-opacity="1"><g transform="translate(182.15762, 32.075149)"><g><path d="M 2.59375 -15.9375 L 4.28125 -15.9375 L 4.28125 0 L 2.59375 0 Z M 2.59375 -15.9375 "/></g></g></g><g fill="#1d2c38" fill-opacity="1"><g transform="translate(190.918563, 32.075149)"><g><path d="M 6.984375 0.140625 C 5.804688 0.140625 4.671875 -0.046875 3.578125 -0.421875 C 2.492188 -0.804688 1.65625 -1.3125 1.0625 -1.9375 L 1.734375 -3.234375 C 2.304688 -2.660156 3.070312 -2.191406 4.03125 -1.828125 C 4.988281 -1.472656 5.972656 -1.296875 6.984375 -1.296875 C 8.410156 -1.296875 9.476562 -1.554688 10.1875 -2.078125 C 10.90625 -2.609375 11.265625 -3.289062 11.265625 -4.125 C 11.265625 -4.757812 11.070312 -5.265625 10.6875 -5.640625 C 10.300781 -6.023438 9.828125 -6.316406 9.265625 -6.515625 C 8.703125 -6.722656 7.921875 -6.945312 6.921875 -7.1875 C 5.722656 -7.5 4.765625 -7.789062 4.046875 -8.0625 C 3.335938 -8.34375 2.726562 -8.769531 2.21875 -9.34375 C 1.707031 -9.925781 1.453125 -10.710938 1.453125 -11.703125 C 1.453125 -12.503906 1.664062 -13.234375 2.09375 -13.890625 C 2.519531 -14.554688 3.171875 -15.085938 4.046875 -15.484375 C 4.929688 -15.878906 6.023438 -16.078125 7.328125 -16.078125 C 8.242188 -16.078125 9.132812 -15.953125 10 -15.703125 C 10.875 -15.453125 11.628906 -15.101562 12.265625 -14.65625 L 11.703125 -13.3125 C 11.035156 -13.757812 10.320312 -14.09375 9.5625 -14.3125 C 8.800781 -14.53125 8.054688 -14.640625 7.328125 -14.640625 C 5.929688 -14.640625 4.878906 -14.367188 4.171875 -13.828125 C 3.472656 -13.285156 3.125 -12.59375 3.125 -11.75 C 3.125 -11.113281 3.316406 -10.597656 3.703125 -10.203125 C 4.085938 -9.816406 4.570312 -9.519531 5.15625 -9.3125 C 5.738281 -9.113281 6.523438 -8.894531 7.515625 -8.65625 C 8.679688 -8.363281 9.625 -8.078125 10.34375 -7.796875 C 11.0625 -7.515625 11.671875 -7.085938 12.171875 -6.515625 C 12.679688 -5.953125 12.9375 -5.1875 12.9375 -4.21875 C 12.9375 -3.40625 12.71875 -2.671875 12.28125 -2.015625 C 11.851562 -1.359375 11.191406 -0.832031 10.296875 -0.4375 C 9.398438 -0.0507812 8.296875 0.140625 6.984375 0.140625 Z M 6.984375 0.140625 "/></g></g></g><g fill="#1d2c38" fill-opacity="1"><g transform="translate(206.80116, 32.075149)"><g><path d="M 7.53125 -7.484375 L 4.28125 -4.1875 L 4.28125 0 L 2.59375 0 L 2.59375 -15.9375 L 4.28125 -15.9375 L 4.28125 -6.3125 L 13.640625 -15.9375 L 15.578125 -15.9375 L 8.671875 -8.71875 L 16.046875 0 L 14.046875 0 Z M 7.53125 -7.484375 "/></g></g></g><g fill="#1d2c38" fill-opacity="1"><g transform="translate(224.868023, 32.075149)"><g><path d="M 12.59375 -4.25 L 3.703125 -4.25 L 1.796875 0 L 0.046875 0 L 7.328125 -15.9375 L 9 -15.9375 L 16.28125 0 L 14.5 0 Z M 11.96875 -5.625 L 8.15625 -14.1875 L 4.328125 -5.625 Z M 11.96875 -5.625 "/></g></g></g><g fill="#1d2c38" fill-opacity="1"><g transform="translate(243.075079, 32.075149)"><g/></g></g><g fill="#1d2c38" fill-opacity="1"><g transform="translate(92.232876, 56.874445)"><g><path d="M 15.84375 -15.9375 L 8.78125 0 L 7.125 0 L 0.0625 -15.9375 L 1.890625 -15.9375 L 7.984375 -2.09375 L 14.140625 -15.9375 Z M 15.84375 -15.9375 "/></g></g></g><g fill="#1d2c38" fill-opacity="1"><g transform="translate(110.003945, 56.874445)"><g><path d="M 2.40625 0.109375 C 2.070312 0.109375 1.785156 -0.0078125 1.546875 -0.25 C 1.316406 -0.488281 1.203125 -0.785156 1.203125 -1.140625 C 1.203125 -1.484375 1.316406 -1.773438 1.546875 -2.015625 C 1.785156 -2.253906 2.070312 -2.375 2.40625 -2.375 C 2.738281 -2.375 3.023438 -2.253906 3.265625 -2.015625 C 3.515625 -1.773438 3.640625 -1.484375 3.640625 -1.140625 C 3.640625 -0.785156 3.515625 -0.488281 3.265625 -0.25 C 3.023438 -0.0078125 2.738281 0.109375 2.40625 0.109375 Z M 2.40625 0.109375 "/></g></g></g><g fill="#1d2c38" fill-opacity="1"><g transform="translate(116.717139, 56.874445)"><g/></g></g><g fill="#1d2c38" fill-opacity="1"><g transform="translate(124.56798, 56.874445)"><g><path d="M 2.59375 -15.9375 L 9.078125 -15.9375 C 10.765625 -15.9375 12.253906 -15.597656 13.546875 -14.921875 C 14.835938 -14.242188 15.835938 -13.300781 16.546875 -12.09375 C 17.265625 -10.894531 17.625 -9.519531 17.625 -7.96875 C 17.625 -6.414062 17.265625 -5.035156 16.546875 -3.828125 C 15.835938 -2.628906 14.835938 -1.691406 13.546875 -1.015625 C 12.253906 -0.335938 10.765625 0 9.078125 0 L 2.59375 0 Z M 9 -1.453125 C 10.394531 -1.453125 11.613281 -1.726562 12.65625 -2.28125 C 13.707031 -2.84375 14.519531 -3.613281 15.09375 -4.59375 C 15.664062 -5.570312 15.953125 -6.695312 15.953125 -7.96875 C 15.953125 -9.238281 15.664062 -10.363281 15.09375 -11.34375 C 14.519531 -12.320312 13.707031 -13.085938 12.65625 -13.640625 C 11.613281 -14.203125 10.394531 -14.484375 9 -14.484375 L 4.28125 -14.484375 L 4.28125 -1.453125 Z M 9 -1.453125 "/></g></g></g><g fill="#1d2c38" fill-opacity="1"><g transform="translate(145.251411, 56.874445)"><g><path d="M 13.859375 -1.453125 L 13.859375 0 L 2.59375 0 L 2.59375 -15.9375 L 13.515625 -15.9375 L 13.515625 -14.484375 L 4.28125 -14.484375 L 4.28125 -8.8125 L 12.515625 -8.8125 L 12.515625 -7.375 L 4.28125 -7.375 L 4.28125 -1.453125 Z M 13.859375 -1.453125 "/></g></g></g><g fill="#1d2c38" fill-opacity="1"><g transform="translate(162.362654, 56.874445)"><g><path d="M 13.484375 0 L 9.828125 -5.125 C 9.421875 -5.070312 9 -5.046875 8.5625 -5.046875 L 4.28125 -5.046875 L 4.28125 0 L 2.59375 0 L 2.59375 -15.9375 L 8.5625 -15.9375 C 10.59375 -15.9375 12.1875 -15.445312 13.34375 -14.46875 C 14.5 -13.5 15.078125 -12.164062 15.078125 -10.46875 C 15.078125 -9.226562 14.757812 -8.175781 14.125 -7.3125 C 13.5 -6.457031 12.597656 -5.84375 11.421875 -5.46875 L 15.328125 0 Z M 8.515625 -6.484375 C 10.085938 -6.484375 11.289062 -6.832031 12.125 -7.53125 C 12.96875 -8.226562 13.390625 -9.207031 13.390625 -10.46875 C 13.390625 -11.757812 12.96875 -12.75 12.125 -13.4375 C 11.289062 -14.132812 10.085938 -14.484375 8.515625 -14.484375 L 4.28125 -14.484375 L 4.28125 -6.484375 Z M 8.515625 -6.484375 "/></g></g></g><g fill="#1d2c38" fill-opacity="1"><g transform="translate(180.70255, 56.874445)"><g/></g></g><g fill="#1d2c38" fill-opacity="1"><g transform="translate(188.553388, 56.874445)"><g><path d="M 13.484375 0 L 9.828125 -5.125 C 9.421875 -5.070312 9 -5.046875 8.5625 -5.046875 L 4.28125 -5.046875 L 4.28125 0 L 2.59375 0 L 2.59375 -15.9375 L 8.5625 -15.9375 C 10.59375 -15.9375 12.1875 -15.445312 13.34375 -14.46875 C 14.5 -13.5 15.078125 -12.164062 15.078125 -10.46875 C 15.078125 -9.226562 14.757812 -8.175781 14.125 -7.3125 C 13.5 -6.457031 12.597656 -5.84375 11.421875 -5.46875 L 15.328125 0 Z M 8.515625 -6.484375 C 10.085938 -6.484375 11.289062 -6.832031 12.125 -7.53125 C 12.96875 -8.226562 13.390625 -9.207031 13.390625 -10.46875 C 13.390625 -11.757812 12.96875 -12.75 12.125 -13.4375 C 11.289062 -14.132812 10.085938 -14.484375 8.515625 -14.484375 L 4.28125 -14.484375 L 4.28125 -6.484375 Z M 8.515625 -6.484375 "/></g></g></g><g fill="#1d2c38" fill-opacity="1"><g transform="translate(206.89329, 56.874445)"><g><path d="M 9.5625 0.140625 C 7.976562 0.140625 6.546875 -0.210938 5.265625 -0.921875 C 3.984375 -1.628906 2.984375 -2.597656 2.265625 -3.828125 C 1.546875 -5.054688 1.1875 -6.4375 1.1875 -7.96875 C 1.1875 -9.5 1.546875 -10.878906 2.265625 -12.109375 C 2.984375 -13.335938 3.984375 -14.304688 5.265625 -15.015625 C 6.546875 -15.722656 7.976562 -16.078125 9.5625 -16.078125 C 11.132812 -16.078125 12.554688 -15.726562 13.828125 -15.03125 C 15.097656 -14.332031 16.097656 -13.363281 16.828125 -12.125 C 17.554688 -10.882812 17.921875 -9.5 17.921875 -7.96875 C 17.921875 -6.4375 17.554688 -5.050781 16.828125 -3.8125 C 16.097656 -2.570312 15.097656 -1.601562 13.828125 -0.90625 C 12.554688 -0.207031 11.132812 0.140625 9.5625 0.140625 Z M 9.5625 -1.359375 C 10.820312 -1.359375 11.957031 -1.644531 12.96875 -2.21875 C 13.988281 -2.789062 14.785156 -3.578125 15.359375 -4.578125 C 15.941406 -5.585938 16.234375 -6.71875 16.234375 -7.96875 C 16.234375 -9.207031 15.941406 -10.332031 15.359375 -11.34375 C 14.785156 -12.351562 13.988281 -13.140625 12.96875 -13.703125 C 11.957031 -14.273438 10.820312 -14.5625 9.5625 -14.5625 C 8.300781 -14.5625 7.15625 -14.273438 6.125 -13.703125 C 5.101562 -13.140625 4.300781 -12.351562 3.71875 -11.34375 C 3.132812 -10.332031 2.84375 -9.207031 2.84375 -7.96875 C 2.84375 -6.71875 3.132812 -5.585938 3.71875 -4.578125 C 4.300781 -3.578125 5.101562 -2.789062 6.125 -2.21875 C 7.15625 -1.644531 8.300781 -1.359375 9.5625 -1.359375 Z M 9.5625 -1.359375 "/></g></g></g><g fill="#1d2c38" fill-opacity="1"><g transform="translate(227.872518, 56.874445)"><g><path d="M 8.5625 -15.9375 C 10.59375 -15.9375 12.1875 -15.445312 13.34375 -14.46875 C 14.5 -13.5 15.078125 -12.164062 15.078125 -10.46875 C 15.078125 -8.769531 14.5 -7.4375 13.34375 -6.46875 C 12.1875 -5.507812 10.59375 -5.03125 8.5625 -5.03125 L 4.28125 -5.03125 L 4.28125 0 L 2.59375 0 L 2.59375 -15.9375 Z M 8.515625 -6.515625 C 10.085938 -6.515625 11.289062 -6.859375 12.125 -7.546875 C 12.96875 -8.234375 13.390625 -9.207031 13.390625 -10.46875 C 13.390625 -11.757812 12.96875 -12.75 12.125 -13.4375 C 11.289062 -14.132812 10.085938 -14.484375 8.515625 -14.484375 L 4.28125 -14.484375 L 4.28125 -6.515625 Z M 8.515625 -6.515625 "/></g></g></g><g fill="#1d2c38" fill-opacity="1"><g transform="translate(246.098644, 56.874445)"><g><path d="M 8.5625 -15.9375 C 10.59375 -15.9375 12.1875 -15.445312 13.34375 -14.46875 C 14.5 -13.5 15.078125 -12.164062 15.078125 -10.46875 C 15.078125 -8.769531 14.5 -7.4375 13.34375 -6.46875 C 12.1875 -5.507812 10.59375 -5.03125 8.5625 -5.03125 L 4.28125 -5.03125 L 4.28125 0 L 2.59375 0 L 2.59375 -15.9375 Z M 8.515625 -6.515625 C 10.085938 -6.515625 11.289062 -6.859375 12.125 -7.546875 C 12.96875 -8.234375 13.390625 -9.207031 13.390625 -10.46875 C 13.390625 -11.757812 12.96875 -12.75 12.125 -13.4375 C 11.289062 -14.132812 10.085938 -14.484375 8.515625 -14.484375 L 4.28125 -14.484375 L 4.28125 -6.515625 Z M 8.515625 -6.515625 "/></g></g></g><g fill="#1d2c38" fill-opacity="1"><g transform="translate(264.32477, 56.874445)"><g><path d="M 1.359375 -6.875 L 7.328125 -6.875 L 7.328125 -5.46875 L 1.359375 -5.46875 Z M 1.359375 -6.875 "/></g></g></g><g fill="#1d2c38" fill-opacity="1"><g transform="translate(274.905946, 56.874445)"><g><path d="M 9.515625 0.140625 C 7.929688 0.140625 6.503906 -0.207031 5.234375 -0.90625 C 3.972656 -1.601562 2.984375 -2.570312 2.265625 -3.8125 C 1.546875 -5.050781 1.1875 -6.4375 1.1875 -7.96875 C 1.1875 -9.5 1.546875 -10.882812 2.265625 -12.125 C 2.984375 -13.363281 3.976562 -14.332031 5.25 -15.03125 C 6.53125 -15.726562 7.957031 -16.078125 9.53125 -16.078125 C 10.71875 -16.078125 11.8125 -15.878906 12.8125 -15.484375 C 13.8125 -15.085938 14.660156 -14.507812 15.359375 -13.75 L 14.296875 -12.6875 C 13.054688 -13.9375 11.484375 -14.5625 9.578125 -14.5625 C 8.316406 -14.5625 7.171875 -14.273438 6.140625 -13.703125 C 5.109375 -13.128906 4.300781 -12.335938 3.71875 -11.328125 C 3.132812 -10.328125 2.84375 -9.207031 2.84375 -7.96875 C 2.84375 -6.71875 3.132812 -5.59375 3.71875 -4.59375 C 4.300781 -3.59375 5.109375 -2.800781 6.140625 -2.21875 C 7.171875 -1.644531 8.316406 -1.359375 9.578125 -1.359375 C 11.492188 -1.359375 13.066406 -2 14.296875 -3.28125 L 15.359375 -2.203125 C 14.660156 -1.441406 13.804688 -0.859375 12.796875 -0.453125 C 11.796875 -0.0546875 10.703125 0.140625 9.515625 0.140625 Z M 9.515625 0.140625 "/></g></g></g><g fill="#1d2c38" fill-opacity="1"><g transform="translate(293.154836, 56.874445)"><g><path d="M 13.484375 0 L 9.828125 -5.125 C 9.421875 -5.070312 9 -5.046875 8.5625 -5.046875 L 4.28125 -5.046875 L 4.28125 0 L 2.59375 0 L 2.59375 -15.9375 L 8.5625 -15.9375 C 10.59375 -15.9375 12.1875 -15.445312 13.34375 -14.46875 C 14.5 -13.5 15.078125 -12.164062 15.078125 -10.46875 C 15.078125 -9.226562 14.757812 -8.175781 14.125 -7.3125 C 13.5 -6.457031 12.597656 -5.84375 11.421875 -5.46875 L 15.328125 0 Z M 8.515625 -6.484375 C 10.085938 -6.484375 11.289062 -6.832031 12.125 -7.53125 C 12.96875 -8.226562 13.390625 -9.207031 13.390625 -10.46875 C 13.390625 -11.757812 12.96875 -12.75 12.125 -13.4375 C 11.289062 -14.132812 10.085938 -14.484375 8.515625 -14.484375 L 4.28125 -14.484375 L 4.28125 -6.484375 Z M 8.515625 -6.484375 "/></g></g></g><g fill="#1d2c38" fill-opacity="1"><g transform="translate(311.494744, 56.874445)"><g><path d="M 12.59375 -4.25 L 3.703125 -4.25 L 1.796875 0 L 0.046875 0 L 7.328125 -15.9375 L 9 -15.9375 L 16.28125 0 L 14.5 0 Z M 11.96875 -5.625 L 8.15625 -14.1875 L 4.328125 -5.625 Z M 11.96875 -5.625 "/></g></g></g><g fill="#1d2c38" fill-opacity="1"><g transform="translate(329.698118, 56.874445)"><g><path d="M 19.140625 -15.9375 L 19.140625 0 L 17.53125 0 L 17.53125 -12.75 L 11.265625 -2.03125 L 10.46875 -2.03125 L 4.21875 -12.6875 L 4.21875 0 L 2.59375 0 L 2.59375 -15.9375 L 3.984375 -15.9375 L 10.90625 -4.125 L 17.75 -15.9375 Z M 19.140625 -15.9375 "/></g></g></g><g fill="#1d2c38" fill-opacity="1"><g transform="translate(353.316688, 56.874445)"><g><path d="M 19.140625 -15.9375 L 19.140625 0 L 17.53125 0 L 17.53125 -12.75 L 11.265625 -2.03125 L 10.46875 -2.03125 L 4.21875 -12.6875 L 4.21875 0 L 2.59375 0 L 2.59375 -15.9375 L 3.984375 -15.9375 L 10.90625 -4.125 L 17.75 -15.9375 Z M 19.140625 -15.9375 "/></g></g></g><path stroke-linecap="butt" transform="matrix(0, 0.750386, -0.75, 0, 80.298392, 3.392577)" fill="none" stroke-linejoin="miter" d="M -0.00260113 1.002023 L 90.955738 1.002023 " stroke="#1d2c38" stroke-width="2" stroke-opacity="1" stroke-miterlimit="4"/><g fill="#1d2c38" fill-opacity="1"><g transform="translate(4.830628, 51.604792)"><g><path d="M 2.296875 0 L 2.296875 -0.609375 L 3.078125 -0.609375 C 6.378906 -0.609375 8.03125 -2.054688 8.03125 -4.953125 L 8.03125 -38.4375 C 8.03125 -41.175781 6.378906 -42.546875 3.078125 -42.546875 L 2.296875 -42.546875 L 2.296875 -43.15625 L 32.75 -43.15625 L 33.125 -32.578125 L 32.515625 -32.578125 L 32.390625 -34.5625 C 32.234375 -37.59375 31.53125 -39.679688 30.28125 -40.828125 C 29.03125 -41.972656 26.875 -42.546875 23.8125 -42.546875 L 14.140625 -42.546875 L 14.140625 -21.515625 L 29.3125 -21.515625 L 29.3125 -20.90625 L 14.140625 -20.90625 L 14.140625 -4.953125 C 14.140625 -2.054688 15.789062 -0.609375 19.09375 -0.609375 L 19.890625 -0.609375 L 19.890625 0 Z M 2.296875 0 "/></g></g></g><g fill="#1d2c38" fill-opacity="1"><g transform="translate(29.294111, 68.101011)"><g><path d="M 22.1875 0.609375 C 18.03125 0.609375 14.5625 -0.316406 11.78125 -2.171875 C 9 -4.023438 6.910156 -6.601562 5.515625 -9.90625 C 4.128906 -13.21875 3.4375 -17.066406 3.4375 -21.453125 C 3.4375 -25.847656 4.140625 -29.726562 5.546875 -33.09375 C 6.960938 -36.457031 9.109375 -39.070312 11.984375 -40.9375 C 14.867188 -42.8125 18.507812 -43.75 22.90625 -43.75 C 26.8125 -43.75 29.8125 -43.0625 31.90625 -41.6875 C 34 -40.320312 35.046875 -38.695312 35.046875 -36.8125 C 35.046875 -35.394531 34.539062 -34.363281 33.53125 -33.71875 C 32.53125 -33.070312 31.285156 -32.75 29.796875 -32.75 C 29.796875 -36.5 29.191406 -39.160156 27.984375 -40.734375 C 26.773438 -42.304688 24.820312 -43.09375 22.125 -43.09375 C 17.851562 -43.09375 14.789062 -41.289062 12.9375 -37.6875 C 11.082031 -34.082031 10.15625 -28.769531 10.15625 -21.75 C 10.15625 -14.5 11.140625 -9.0625 13.109375 -5.4375 C 15.085938 -1.8125 18.351562 0 22.90625 0 C 25.601562 0 27.796875 -0.691406 29.484375 -2.078125 C 31.179688 -3.472656 32.453125 -5.722656 33.296875 -8.828125 C 34.304688 -8.421875 34.8125 -7.65625 34.8125 -6.53125 C 34.8125 -5.476562 34.347656 -4.40625 33.421875 -3.3125 C 32.492188 -2.226562 31.09375 -1.300781 29.21875 -0.53125 C 27.34375 0.226562 25 0.609375 22.1875 0.609375 Z M 22.1875 0.609375 "/></g></g></g></svg>