<svg xmlns="http://www.w3.org/2000/svg" xmlns:xlink="http://www.w3.org/1999/xlink" width="100" zoomAndPan="magnify" viewBox="0 0 75 74.999997" height="100" preserveAspectRatio="xMidYMid meet" version="1.0"><defs><g/></defs><g fill="#1d2c38" fill-opacity="1"><g transform="translate(0.00487993, 52.362241)"><g><path d="M 2.671875 0 L 2.671875 -0.703125 L 3.59375 -0.703125 C 7.445312 -0.703125 9.375 -2.394531 9.375 -5.78125 L 9.375 -44.8125 C 9.375 -48 7.445312 -49.59375 3.59375 -49.59375 L 2.671875 -49.59375 L 2.671875 -50.296875 L 38.1875 -50.296875 L 38.609375 -37.96875 L 37.90625 -37.96875 L 37.765625 -40.296875 C 37.578125 -43.816406 36.753906 -46.242188 35.296875 -47.578125 C 33.835938 -48.921875 31.328125 -49.59375 27.765625 -49.59375 L 16.484375 -49.59375 L 16.484375 -25.078125 L 34.171875 -25.078125 L 34.171875 -24.375 L 16.484375 -24.375 L 16.484375 -5.78125 C 16.484375 -2.394531 18.410156 -0.703125 22.265625 -0.703125 L 23.171875 -0.703125 L 23.171875 0 Z M 2.671875 0 "/></g></g></g><g fill="#1d2c38" fill-opacity="1"><g transform="translate(28.522219, 71.592056)"><g><path d="M 25.859375 0.703125 C 21.015625 0.703125 16.972656 -0.375 13.734375 -2.53125 C 10.492188 -4.695312 8.0625 -7.703125 6.4375 -11.546875 C 4.820312 -15.398438 4.015625 -19.890625 4.015625 -25.015625 C 4.015625 -30.128906 4.835938 -34.644531 6.484375 -38.5625 C 8.128906 -42.488281 10.628906 -45.546875 13.984375 -47.734375 C 17.335938 -49.921875 21.578125 -51.015625 26.703125 -51.015625 C 31.253906 -51.015625 34.75 -50.210938 37.1875 -48.609375 C 39.632812 -47.015625 40.859375 -45.113281 40.859375 -42.90625 C 40.859375 -41.257812 40.269531 -40.0625 39.09375 -39.3125 C 37.925781 -38.5625 36.472656 -38.1875 34.734375 -38.1875 C 34.734375 -42.550781 34.023438 -45.648438 32.609375 -47.484375 C 31.203125 -49.316406 28.925781 -50.234375 25.78125 -50.234375 C 20.800781 -50.234375 17.234375 -48.128906 15.078125 -43.921875 C 12.921875 -39.722656 11.84375 -33.535156 11.84375 -25.359375 C 11.84375 -16.910156 12.988281 -10.570312 15.28125 -6.34375 C 17.582031 -2.113281 21.390625 0 26.703125 0 C 29.847656 0 32.40625 -0.804688 34.375 -2.421875 C 36.351562 -4.046875 37.832031 -6.664062 38.8125 -10.28125 C 39.988281 -9.8125 40.578125 -8.921875 40.578125 -7.609375 C 40.578125 -6.390625 40.035156 -5.144531 38.953125 -3.875 C 37.878906 -2.601562 36.25 -1.519531 34.0625 -0.625 C 31.875 0.257812 29.140625 0.703125 25.859375 0.703125 Z M 25.859375 0.703125 "/></g></g></g></svg>