<svg xmlns="http://www.w3.org/2000/svg" xmlns:xlink="http://www.w3.org/1999/xlink" width="500" zoomAndPan="magnify" viewBox="0 0 375 374.999991" height="500" preserveAspectRatio="xMidYMid meet" version="1.0"><defs><g/><clipPath id="d6ffc445af"><path d="M 1.773438 179.609375 L 373.226562 179.609375 L 373.226562 211.949219 L 1.773438 211.949219 Z M 1.773438 179.609375 " clip-rule="nonzero"/></clipPath></defs><g fill="#253439" fill-opacity="1"><g transform="translate(10.96954, 243.901016)"><g><path d="M 11.277344 0 L 39.160156 0 L 39.160156 -2.253906 C 33.417969 -3.691406 30.960938 -7.175781 30.960938 -26.039062 L 30.960938 -77.296875 L 63.96875 -77.089844 C 85.292969 -76.886719 89.800781 -72.167969 91.441406 -64.582031 L 93.699219 -64.582031 L 93.699219 -91.851562 L 91.441406 -91.851562 C 89.800781 -84.265625 85.292969 -79.550781 63.96875 -79.753906 L 30.960938 -79.960938 L 30.960938 -140.855469 L 73.195312 -140.855469 C 91.648438 -140.855469 99.4375 -135.933594 105.589844 -122.8125 L 107.433594 -123.222656 L 105.382812 -143.519531 L 11.277344 -143.519531 L 11.277344 -141.265625 C 17.015625 -139.828125 19.476562 -136.34375 19.476562 -117.480469 L 19.476562 -26.039062 C 19.476562 -7.175781 17.015625 -3.691406 11.277344 -2.253906 Z M 11.277344 0 "/></g></g></g><g fill="#253439" fill-opacity="1"><g transform="translate(147.103302, 243.901016)"><g/></g></g><g fill="#253439" fill-opacity="1"><g transform="translate(214.1462, 243.901016)"><g><path d="M 85.496094 2.050781 C 106.203125 2.050781 129.78125 -4.511719 138.394531 -10.25 L 141.675781 -34.035156 L 139.625 -34.238281 C 131.011719 -11.277344 112.355469 -1.640625 91.03125 -1.640625 C 45.3125 -1.640625 22.144531 -39.160156 22.347656 -76.269531 C 22.757812 -119.324219 50.027344 -140.855469 82.421875 -140.855469 C 110.507812 -140.855469 127.9375 -128.960938 135.523438 -112.765625 L 137.164062 -113.175781 L 136.34375 -134.496094 C 131.21875 -137.367188 111.328125 -144.953125 91.238281 -144.953125 C 45.105469 -144.953125 10.25 -114.609375 10.25 -68.480469 C 10.25 -25.21875 40.390625 2.050781 85.496094 2.050781 Z M 85.496094 2.050781 "/></g></g></g><path stroke-linecap="butt" transform="matrix(-0.000000000000000287, -0.750163, 0.75, -0.000000000000000287, 184.495656, 309.116699)" fill="none" stroke-linejoin="miter" d="M -0.000651323 4.000584 L 358.931662 4.000584 " stroke="#253439" stroke-width="8" stroke-opacity="1" stroke-miterlimit="4"/><g clip-path="url(#d6ffc445af)"><path fill="#cceedf" d="M 1.773438 179.609375 L 373.226562 179.609375 L 373.226562 211.949219 L 1.773438 211.949219 Z M 1.773438 179.609375 " fill-opacity="1" fill-rule="nonzero"/></g><g fill="#253439" fill-opacity="1"><g transform="translate(18.847831, 201.529013)"><g><path d="M 1.65625 0 L 1.65625 -15.703125 L 11.21875 -15.703125 L 11.21875 -14.15625 L 3.546875 -14.15625 L 3.546875 -8.640625 L 10.078125 -8.640625 L 10.078125 -7.109375 L 3.546875 -7.109375 L 3.546875 0 Z M 1.65625 0 "/></g></g></g><g fill="#253439" fill-opacity="1"><g transform="translate(35.581073, 201.529013)"><g><path d="M 1.65625 0 L 1.65625 -15.703125 L 6.734375 -15.703125 C 7.960938 -15.703125 8.960938 -15.5 9.734375 -15.09375 C 10.515625 -14.695312 11.09375 -14.144531 11.46875 -13.4375 C 11.84375 -12.738281 12.03125 -11.960938 12.03125 -11.109375 C 12.03125 -10.117188 11.765625 -9.226562 11.234375 -8.4375 C 10.703125 -7.644531 9.875 -7.082031 8.75 -6.75 L 12.1875 0 L 9.96875 0 L 6.78125 -6.484375 L 3.546875 -6.484375 L 3.546875 0 Z M 3.546875 -7.96875 L 6.59375 -7.96875 C 7.8125 -7.96875 8.695312 -8.257812 9.25 -8.84375 C 9.800781 -9.425781 10.078125 -10.171875 10.078125 -11.078125 C 10.078125 -12.003906 9.800781 -12.738281 9.25 -13.28125 C 8.707031 -13.832031 7.816406 -14.109375 6.578125 -14.109375 L 3.546875 -14.109375 Z M 3.546875 -7.96875 "/></g></g></g><g fill="#253439" fill-opacity="1"><g transform="translate(53.637562, 201.529013)"><g><path d="M 0.671875 0 L 6.46875 -15.703125 L 8.453125 -15.703125 L 14.21875 0 L 12.234375 0 L 10.796875 -4.03125 L 4.109375 -4.03125 L 2.640625 0 Z M 4.671875 -5.5625 L 10.234375 -5.5625 L 7.453125 -13.328125 Z M 4.671875 -5.5625 "/></g></g></g><g fill="#253439" fill-opacity="1"><g transform="translate(73.286444, 201.529013)"><g><path d="M 1.65625 0 L 1.65625 -15.703125 L 3.546875 -15.703125 L 11.921875 -3.125 L 11.921875 -15.703125 L 13.796875 -15.703125 L 13.796875 0 L 11.921875 0 L 3.546875 -12.59375 L 3.546875 0 Z M 1.65625 0 "/></g></g></g><g fill="#253439" fill-opacity="1"><g transform="translate(93.496036, 201.529013)"><g><path d="M 0.984375 0 L 0.984375 -1.484375 L 8.734375 -14.0625 L 1.09375 -14.0625 L 1.09375 -15.703125 L 10.921875 -15.703125 L 10.921875 -14.21875 L 3.15625 -1.640625 L 11.015625 -1.640625 L 11.015625 0 Z M 0.984375 0 "/></g></g></g><g fill="#253439" fill-opacity="1"><g transform="translate(110.2517, 201.529013)"><g><path d="M 1.65625 0 L 1.65625 -15.703125 L 3.546875 -15.703125 L 3.546875 0 Z M 1.65625 0 "/></g></g></g><g fill="#253439" fill-opacity="1"><g transform="translate(120.21166, 201.529013)"><g><path d="M 6.65625 0.265625 C 5.507812 0.265625 4.507812 0.0546875 3.65625 -0.359375 C 2.800781 -0.773438 2.140625 -1.359375 1.671875 -2.109375 C 1.210938 -2.859375 0.984375 -3.726562 0.984375 -4.71875 L 2.96875 -4.71875 C 2.96875 -4.101562 3.109375 -3.535156 3.390625 -3.015625 C 3.671875 -2.503906 4.082031 -2.09375 4.625 -1.78125 C 5.175781 -1.476562 5.851562 -1.328125 6.65625 -1.328125 C 7.71875 -1.328125 8.539062 -1.578125 9.125 -2.078125 C 9.707031 -2.585938 10 -3.226562 10 -4 C 10 -4.625 9.863281 -5.125 9.59375 -5.5 C 9.332031 -5.882812 8.972656 -6.195312 8.515625 -6.4375 C 8.054688 -6.675781 7.53125 -6.882812 6.9375 -7.0625 C 6.351562 -7.25 5.738281 -7.453125 5.09375 -7.671875 C 3.882812 -8.085938 2.988281 -8.609375 2.40625 -9.234375 C 1.820312 -9.859375 1.53125 -10.671875 1.53125 -11.671875 C 1.507812 -12.503906 1.703125 -13.242188 2.109375 -13.890625 C 2.515625 -14.546875 3.085938 -15.054688 3.828125 -15.421875 C 4.566406 -15.785156 5.445312 -15.96875 6.46875 -15.96875 C 7.46875 -15.96875 8.335938 -15.78125 9.078125 -15.40625 C 9.816406 -15.039062 10.390625 -14.523438 10.796875 -13.859375 C 11.210938 -13.203125 11.425781 -12.457031 11.4375 -11.625 L 9.46875 -11.625 C 9.46875 -12.050781 9.351562 -12.476562 9.125 -12.90625 C 8.90625 -13.332031 8.566406 -13.679688 8.109375 -13.953125 C 7.648438 -14.222656 7.078125 -14.359375 6.390625 -14.359375 C 5.535156 -14.367188 4.835938 -14.148438 4.296875 -13.703125 C 3.753906 -13.253906 3.484375 -12.632812 3.484375 -11.84375 C 3.484375 -11.175781 3.671875 -10.660156 4.046875 -10.296875 C 4.429688 -9.941406 4.96875 -9.644531 5.65625 -9.40625 C 6.34375 -9.175781 7.132812 -8.910156 8.03125 -8.609375 C 8.78125 -8.347656 9.453125 -8.035156 10.046875 -7.671875 C 10.648438 -7.316406 11.117188 -6.851562 11.453125 -6.28125 C 11.785156 -5.71875 11.953125 -4.992188 11.953125 -4.109375 C 11.953125 -3.359375 11.757812 -2.648438 11.375 -1.984375 C 10.988281 -1.316406 10.398438 -0.773438 9.609375 -0.359375 C 8.828125 0.0546875 7.84375 0.265625 6.65625 0.265625 Z M 6.65625 0.265625 "/></g></g></g><g fill="#253439" fill-opacity="1"><g transform="translate(137.93174, 201.529013)"><g><path d="M 1.65625 0 L 1.65625 -15.703125 L 3.546875 -15.703125 L 3.546875 -8.59375 L 10.09375 -15.703125 L 12.46875 -15.703125 L 6.640625 -9.453125 L 12.5625 0 L 10.28125 0 L 5.296875 -7.984375 L 3.546875 -6.125 L 3.546875 0 Z M 1.65625 0 "/></g></g></g><g fill="#253439" fill-opacity="1"><g transform="translate(155.741528, 201.529013)"><g><path d="M 0.671875 0 L 6.46875 -15.703125 L 8.453125 -15.703125 L 14.21875 0 L 12.234375 0 L 10.796875 -4.03125 L 4.109375 -4.03125 L 2.640625 0 Z M 4.671875 -5.5625 L 10.234375 -5.5625 L 7.453125 -13.328125 Z M 4.671875 -5.5625 "/></g></g></g><g fill="#253439" fill-opacity="1"><g transform="translate(175.390403, 201.529013)"><g/></g></g><g fill="#253439" fill-opacity="1"><g transform="translate(186.090485, 201.529013)"><g><path d="M 6.390625 0 L 0.5 -15.703125 L 2.53125 -15.703125 L 7.5 -2 L 12.5 -15.703125 L 14.5 -15.703125 L 8.59375 0 Z M 6.390625 0 "/></g></g></g><g fill="#253439" fill-opacity="1"><g transform="translate(205.82907, 201.529013)"><g><path d="M 8.796875 0.265625 C 7.253906 0.265625 5.898438 -0.0703125 4.734375 -0.75 C 3.578125 -1.425781 2.671875 -2.378906 2.015625 -3.609375 C 1.367188 -4.835938 1.046875 -6.253906 1.046875 -7.859375 C 1.046875 -9.453125 1.367188 -10.859375 2.015625 -12.078125 C 2.671875 -13.296875 3.578125 -14.25 4.734375 -14.9375 C 5.898438 -15.625 7.253906 -15.96875 8.796875 -15.96875 C 10.347656 -15.96875 11.703125 -15.625 12.859375 -14.9375 C 14.023438 -14.25 14.925781 -13.296875 15.5625 -12.078125 C 16.207031 -10.859375 16.53125 -9.453125 16.53125 -7.859375 C 16.53125 -6.253906 16.207031 -4.835938 15.5625 -3.609375 C 14.925781 -2.378906 14.023438 -1.425781 12.859375 -0.75 C 11.703125 -0.0703125 10.347656 0.265625 8.796875 0.265625 Z M 8.796875 -1.390625 C 9.941406 -1.390625 10.953125 -1.644531 11.828125 -2.15625 C 12.703125 -2.675781 13.382812 -3.414062 13.875 -4.375 C 14.363281 -5.34375 14.609375 -6.503906 14.609375 -7.859375 C 14.609375 -9.203125 14.363281 -10.351562 13.875 -11.3125 C 13.382812 -12.269531 12.703125 -13.003906 11.828125 -13.515625 C 10.953125 -14.035156 9.941406 -14.296875 8.796875 -14.296875 C 7.640625 -14.296875 6.625 -14.035156 5.75 -13.515625 C 4.875 -13.003906 4.191406 -12.269531 3.703125 -11.3125 C 3.222656 -10.351562 2.984375 -9.203125 2.984375 -7.859375 C 2.984375 -6.503906 3.222656 -5.34375 3.703125 -4.375 C 4.191406 -3.414062 4.875 -2.675781 5.75 -2.15625 C 6.625 -1.644531 7.640625 -1.390625 8.796875 -1.390625 Z M 8.796875 -1.390625 "/></g></g></g><g fill="#253439" fill-opacity="1"><g transform="translate(228.16932, 201.529013)"><g><path d="M 1.65625 0 L 1.65625 -15.703125 L 3.546875 -15.703125 L 11.921875 -3.125 L 11.921875 -15.703125 L 13.796875 -15.703125 L 13.796875 0 L 11.921875 0 L 3.546875 -12.59375 L 3.546875 0 Z M 1.65625 0 "/></g></g></g><g fill="#253439" fill-opacity="1"><g transform="translate(248.378908, 201.529013)"><g/></g></g><g fill="#253439" fill-opacity="1"><g transform="translate(259.07899, 201.529013)"><g><path d="M 8.546875 0.265625 C 7.003906 0.265625 5.675781 -0.0703125 4.5625 -0.75 C 3.445312 -1.425781 2.582031 -2.375 1.96875 -3.59375 C 1.351562 -4.820312 1.046875 -6.242188 1.046875 -7.859375 C 1.046875 -9.453125 1.351562 -10.859375 1.96875 -12.078125 C 2.582031 -13.296875 3.445312 -14.25 4.5625 -14.9375 C 5.675781 -15.625 7.003906 -15.96875 8.546875 -15.96875 C 10.335938 -15.96875 11.796875 -15.535156 12.921875 -14.671875 C 14.054688 -13.816406 14.78125 -12.617188 15.09375 -11.078125 L 13.015625 -11.078125 C 12.773438 -12.054688 12.285156 -12.835938 11.546875 -13.421875 C 10.804688 -14.015625 9.804688 -14.3125 8.546875 -14.3125 C 7.421875 -14.3125 6.441406 -14.050781 5.609375 -13.53125 C 4.773438 -13.019531 4.128906 -12.28125 3.671875 -11.3125 C 3.210938 -10.351562 2.984375 -9.203125 2.984375 -7.859375 C 2.984375 -6.503906 3.210938 -5.34375 3.671875 -4.375 C 4.128906 -3.414062 4.773438 -2.675781 5.609375 -2.15625 C 6.441406 -1.644531 7.421875 -1.390625 8.546875 -1.390625 C 9.804688 -1.390625 10.804688 -1.675781 11.546875 -2.25 C 12.285156 -2.832031 12.773438 -3.601562 13.015625 -4.5625 L 15.09375 -4.5625 C 14.78125 -3.039062 14.054688 -1.851562 12.921875 -1 C 11.796875 -0.15625 10.335938 0.265625 8.546875 0.265625 Z M 8.546875 0.265625 "/></g></g></g><g fill="#253439" fill-opacity="1"><g transform="translate(279.983844, 201.529013)"><g><path d="M 1.65625 0 L 1.65625 -15.703125 L 6.734375 -15.703125 C 7.960938 -15.703125 8.960938 -15.5 9.734375 -15.09375 C 10.515625 -14.695312 11.09375 -14.144531 11.46875 -13.4375 C 11.84375 -12.738281 12.03125 -11.960938 12.03125 -11.109375 C 12.03125 -10.117188 11.765625 -9.226562 11.234375 -8.4375 C 10.703125 -7.644531 9.875 -7.082031 8.75 -6.75 L 12.1875 0 L 9.96875 0 L 6.78125 -6.484375 L 3.546875 -6.484375 L 3.546875 0 Z M 3.546875 -7.96875 L 6.59375 -7.96875 C 7.8125 -7.96875 8.695312 -8.257812 9.25 -8.84375 C 9.800781 -9.425781 10.078125 -10.171875 10.078125 -11.078125 C 10.078125 -12.003906 9.800781 -12.738281 9.25 -13.28125 C 8.707031 -13.832031 7.816406 -14.109375 6.578125 -14.109375 L 3.546875 -14.109375 Z M 3.546875 -7.96875 "/></g></g></g><g fill="#253439" fill-opacity="1"><g transform="translate(298.040327, 201.529013)"><g><path d="M 0.671875 0 L 6.46875 -15.703125 L 8.453125 -15.703125 L 14.21875 0 L 12.234375 0 L 10.796875 -4.03125 L 4.109375 -4.03125 L 2.640625 0 Z M 4.671875 -5.5625 L 10.234375 -5.5625 L 7.453125 -13.328125 Z M 4.671875 -5.5625 "/></g></g></g><g fill="#253439" fill-opacity="1"><g transform="translate(317.689203, 201.529013)"><g><path d="M 1.65625 0 L 1.65625 -15.703125 L 3.859375 -15.703125 L 9.515625 -4.75 L 15.125 -15.703125 L 17.34375 -15.703125 L 17.34375 0 L 15.453125 0 L 15.453125 -12.34375 L 10.203125 -2.25 L 8.796875 -2.25 L 3.546875 -12.3125 L 3.546875 0 Z M 1.65625 0 "/></g></g></g><g fill="#253439" fill-opacity="1"><g transform="translate(341.442409, 201.529013)"><g><path d="M 1.65625 0 L 1.65625 -15.703125 L 3.859375 -15.703125 L 9.515625 -4.75 L 15.125 -15.703125 L 17.34375 -15.703125 L 17.34375 0 L 15.453125 0 L 15.453125 -12.34375 L 10.203125 -2.25 L 8.796875 -2.25 L 3.546875 -12.3125 L 3.546875 0 Z M 1.65625 0 "/></g></g></g></svg>